<svg width="140" height="23" viewBox="0 0 140 23" fill="none" xmlns="http://www.w3.org/2000/svg">
<path d="M10.672 13.52C11.4187 14.7787 12.1653 15.8987 12.912 16.88C13.68 17.84 14.6827 19.024 15.92 20.432C16.0693 20.5813 16.144 20.752 16.144 20.944C16.144 21.2427 15.9733 21.4987 15.632 21.712C15.312 21.9253 14.9173 22.032 14.448 22.032C13.7867 22.032 13.072 21.7547 12.304 21.2C11.6213 20.7093 11.0133 20.0587 10.48 19.248C9.94667 18.4373 9.328 17.3813 8.624 16.08C8.06933 15.0773 7.73867 14.4907 7.632 14.32C6.8 14.6613 5.49867 14.8747 3.728 14.96C3.728 15.6853 3.792 16.6667 3.92 17.904C4.048 19.184 4.112 20.112 4.112 20.688C4.112 21.072 3.92 21.392 3.536 21.648C3.17333 21.904 2.75733 22.032 2.288 22.032C1.73333 22.032 1.30667 21.808 1.008 21.36C0.709333 20.7627 0.517334 20.048 0.432 19.216C0.346667 18.384 0.304 17.392 0.304 16.24C0.304 15.024 0.378667 13.648 0.528 12.112C0.656 10.4053 0.72 9.14667 0.72 8.336C0.72 7.67467 0.656 6.78933 0.528 5.68C0.506667 5.488 0.474667 5.15733 0.432 4.688C0.389333 4.21867 0.368 3.792 0.368 3.408C0.368 3.10933 0.474667 2.85333 0.688 2.64C0.922667 2.40533 1.168 2.24533 1.424 2.16C3.152 1.88267 4.83733 1.744 6.48 1.744C9.27467 1.744 11.5893 2.26667 13.424 3.312C15.2587 4.35733 16.176 5.94667 16.176 8.08C16.176 8.74133 16.0267 9.38133 15.728 10C15.4507 10.5973 15.0667 11.0987 14.576 11.504C13.2747 12.5067 11.9733 13.1787 10.672 13.52ZM12.816 7.984C12.816 6.96 12.272 6.128 11.184 5.488C10.096 4.82667 8.54933 4.496 6.544 4.496C5.648 4.496 4.76267 4.60267 3.888 4.816L3.92 6.448C3.92 7.38667 3.888 8.304 3.824 9.2C3.76 10.096 3.728 11.056 3.728 12.08C4.09067 11.9947 4.47467 11.9413 4.88 11.92C5.28533 11.8773 5.552 11.8453 5.68 11.824C6.61867 11.7387 7.344 11.632 7.856 11.504C8.816 11.2053 9.60533 10.9387 10.224 10.704C10.864 10.448 11.4507 10.096 11.984 9.648C12.5387 9.17867 12.816 8.624 12.816 7.984ZM34.3045 7.184C33.9845 6.97067 33.6752 6.72533 33.3765 6.448C32.6085 5.85067 31.9578 5.41333 31.4245 5.136C30.8912 4.83733 30.2938 4.688 29.6325 4.688C28.6938 4.688 27.7552 4.80533 26.8165 5.04C25.8992 5.27467 25.1418 5.60533 24.5445 6.032C23.6485 6.69333 23.0405 7.568 22.7205 8.656C22.4005 9.72267 22.2405 11.0347 22.2405 12.592C22.2405 14.2347 22.7525 15.696 23.7765 16.976C24.3952 17.68 25.1418 18.224 26.0165 18.608C26.9125 18.992 27.8085 19.184 28.7045 19.184C30.7738 19.184 32.3098 18.608 33.3125 17.456C34.0378 16.5387 34.4005 15.4187 34.4005 14.096C34.4005 13.8613 34.2298 13.7013 33.8885 13.616C33.5472 13.5307 33.0565 13.488 32.4165 13.488C32.0965 13.488 31.5952 13.4453 30.9125 13.36C30.7205 13.3387 30.5072 13.3173 30.2725 13.296C30.0592 13.2747 29.8352 13.264 29.6005 13.264C28.9818 13.264 28.4912 13.1467 28.1285 12.912C27.7658 12.6773 27.5845 12.3787 27.5845 12.016C27.5845 11.504 27.7552 11.1307 28.0965 10.896C28.4378 10.64 28.8965 10.512 29.4725 10.512C30.1338 10.512 31.1472 10.5547 32.5125 10.64C33.7925 10.7253 34.6992 10.768 35.2325 10.768C35.9792 10.768 36.5765 11.0027 37.0245 11.472C37.4938 11.9413 37.7285 12.624 37.7285 13.52C37.7285 14.352 37.5472 15.3227 37.1845 16.432C36.8218 17.5413 36.3098 18.5333 35.6485 19.408C35.0085 20.2827 34.0592 20.9547 32.8005 21.424C31.5632 21.8933 30.1978 22.128 28.7045 22.128C27.4885 22.128 26.2832 21.9147 25.0885 21.488C23.8938 21.04 22.8912 20.4427 22.0805 19.696C21.0992 18.7787 20.3205 17.6907 19.7445 16.432C19.1898 15.152 18.9125 13.8827 18.9125 12.624C18.9125 10.6827 19.2538 8.86933 19.9365 7.184C20.6405 5.47733 21.7072 4.15467 23.1365 3.216C23.7765 2.78933 24.7578 2.43733 26.0805 2.16C27.4032 1.88267 28.5658 1.744 29.5685 1.744C30.9765 1.744 32.2565 2.05333 33.4085 2.672C34.5605 3.29067 35.4565 4.05867 36.0965 4.976C36.3525 5.36 36.4805 5.70133 36.4805 6C36.4805 6.34133 36.3312 6.66133 36.0325 6.96C35.7338 7.25867 35.4352 7.408 35.1365 7.408C35.0085 7.408 34.8592 7.38667 34.6885 7.344C34.5178 7.30133 34.3898 7.248 34.3045 7.184ZM50.6898 2.64C51.4791 4.98667 52.3751 7.568 53.3778 10.384C54.3804 13.1787 55.2978 15.6 56.1298 17.648C56.7484 15.664 57.6018 13.2853 58.6898 10.512C59.7778 7.71733 60.7911 5.2 61.7298 2.96C62.0071 2.29867 62.4764 1.968 63.1378 1.968C63.7564 1.968 64.2258 2.096 64.5458 2.352C64.8658 2.58667 65.0258 3.00267 65.0258 3.6C65.0258 3.83467 64.9938 4.03733 64.9298 4.208C64.8658 4.37867 64.7698 4.60267 64.6418 4.88C63.9804 6.18133 63.3191 7.68533 62.6578 9.392C61.9964 11.0773 61.1858 13.2213 60.2258 15.824C60.2684 15.7173 59.9698 16.5173 59.3298 18.224L58.2738 20.976C58.1458 21.3173 57.9324 21.584 57.6338 21.776C57.3564 21.9467 57.0364 22.032 56.6738 22.032C56.3111 22.032 55.9058 21.9467 55.4578 21.776C55.0311 21.584 54.7218 21.392 54.5298 21.2C53.8044 19.8133 52.8764 17.808 51.7458 15.184C50.6364 12.56 49.6764 10.1387 48.8658 7.92L48.3858 6.608C48.0658 5.712 47.8311 5.02933 47.6818 4.56C47.5324 4.06933 47.4578 3.67467 47.4578 3.376C47.4578 2.94933 47.6924 2.608 48.1618 2.352C48.6524 2.096 49.1218 1.968 49.5698 1.968C49.8044 1.968 50.0284 2.02133 50.2418 2.128C50.4551 2.23466 50.6044 2.40533 50.6898 2.64ZM68.7655 1.456C69.5122 1.52 70.1628 1.72267 70.7175 2.064C71.2722 2.384 71.5495 2.87467 71.5495 3.536C71.5495 4.02667 71.3148 4.42133 70.8455 4.72C70.3975 4.99733 69.8535 5.136 69.2135 5.136C68.5948 5.136 68.1682 4.976 67.9335 4.656C67.6988 4.336 67.5815 4.00533 67.5815 3.664C67.5815 3.024 67.6455 2.49067 67.7735 2.064C67.9228 1.63733 68.2535 1.43467 68.7655 1.456ZM71.3255 15.632V16.56C71.3255 17.392 71.3468 18.1813 71.3895 18.928C71.4535 19.6533 71.5282 20.3893 71.6135 21.136C71.5922 21.3493 71.4322 21.5733 71.1335 21.808C70.8348 22.0213 70.5682 22.128 70.3335 22.128C69.9282 22.128 69.5122 22.0533 69.0855 21.904C68.6802 21.7333 68.4348 21.5307 68.3495 21.296C68.2215 20.6133 68.1575 20.0053 68.1575 19.472C68.1575 17.7227 68.1042 15.76 67.9975 13.584C67.9122 11.664 67.8695 10.32 67.8695 9.552C67.8695 9.168 68.0615 8.83733 68.4455 8.56C68.8295 8.28267 69.2348 8.144 69.6615 8.144C70.2802 8.144 70.7068 8.28267 70.9415 8.56C71.1975 8.83733 71.3255 9.27467 71.3255 9.872V15.632ZM84.281 14.8C84.4517 14.9067 84.7823 15.1093 85.273 15.408C85.785 15.6853 86.1263 16.016 86.297 16.4C86.4677 16.784 86.553 17.3173 86.553 18C86.553 18.768 86.329 19.4507 85.881 20.048C85.433 20.624 84.857 21.072 84.153 21.392C83.641 21.6267 83.0117 21.808 82.265 21.936C81.5397 22.064 80.9637 22.128 80.537 22.128C80.1103 22.128 79.5557 22.064 78.873 21.936C78.2117 21.808 77.753 21.6907 77.497 21.584C76.8357 21.2 76.2597 20.7307 75.769 20.176C75.2997 19.6213 75.065 19.056 75.065 18.48C75.065 18.0533 75.2037 17.7227 75.481 17.488C75.7583 17.232 76.121 17.104 76.569 17.104C76.7823 17.104 77.0063 17.1893 77.241 17.36C77.4757 17.5093 77.6357 17.6693 77.721 17.84C77.9557 18.3947 78.3503 18.8107 78.905 19.088C79.4597 19.3653 80.025 19.504 80.601 19.504C81.3477 19.504 82.041 19.3867 82.681 19.152C83.321 18.896 83.641 18.5547 83.641 18.128C83.641 17.936 83.5877 17.7867 83.481 17.68C83.3957 17.552 83.2677 17.424 83.097 17.296C82.7983 17.0827 82.3503 16.912 81.753 16.784C81.1557 16.6347 80.7717 16.5387 80.601 16.496C79.7263 16.304 78.873 16.016 78.041 15.632C77.209 15.2267 76.5477 14.7467 76.057 14.192C75.5663 13.6373 75.321 12.9227 75.321 12.048C75.321 11.472 75.5343 10.8747 75.961 10.256C76.3877 9.616 76.8677 9.168 77.401 8.912C77.785 8.76267 78.425 8.60267 79.321 8.432C80.2383 8.26133 80.857 8.176 81.177 8.176C81.6677 8.176 82.201 8.22933 82.777 8.336C83.353 8.42133 83.7903 8.57067 84.089 8.784C84.665 9.12533 85.1343 9.488 85.497 9.872C85.8597 10.2347 86.041 10.6507 86.041 11.12C86.041 11.3547 85.9877 11.6107 85.881 11.888C85.7743 12.144 85.6463 12.304 85.497 12.368C85.177 12.5173 84.8037 12.592 84.377 12.592C84.185 12.592 84.025 12.5387 83.897 12.432C83.7903 12.3253 83.641 12.1547 83.449 11.92C83.2143 11.5573 82.9903 11.344 82.777 11.28C82.521 11.216 82.1477 11.1413 81.657 11.056C81.1663 10.9493 80.8357 10.896 80.665 10.896C80.1743 10.896 79.6623 11.0347 79.129 11.312C78.617 11.5893 78.361 11.9093 78.361 12.272C78.361 12.464 78.4357 12.6133 78.585 12.72C78.7557 12.8267 78.9263 12.9227 79.097 13.008C79.289 13.0933 79.417 13.1467 79.481 13.168C79.929 13.3813 80.4197 13.5627 80.953 13.712C81.5077 13.8613 81.849 13.9573 81.977 14C83.129 14.2773 83.897 14.544 84.281 14.8ZM102.627 22.096C101.027 22.096 99.9497 21.4773 99.395 20.24C99.1177 19.6213 98.9363 18.8213 98.851 17.84C98.7657 16.8373 98.723 15.664 98.723 14.32V13.328C98.723 11.792 98.211 11.024 97.187 11.024C96.5897 11.024 95.9923 11.3333 95.395 11.952C94.7977 12.5493 94.2963 13.3493 93.891 14.352C93.507 15.3333 93.315 16.3573 93.315 17.424C93.315 18.128 93.347 18.768 93.411 19.344C93.4537 20.0693 93.475 20.624 93.475 21.008C93.475 21.7333 92.9737 22.096 91.971 22.096C91.4803 22.096 91.043 21.9893 90.659 21.776C90.2963 21.5627 90.115 21.2853 90.115 20.944C90.2003 19.856 90.243 18.512 90.243 16.912L90.211 12.688C90.211 12.0053 90.1577 9.47733 90.051 5.104L89.955 2.16C89.955 1.69067 90.1683 1.28533 90.595 0.943998C91.0217 0.581333 91.5017 0.4 92.035 0.4C92.5043 0.4 92.8457 0.506666 93.059 0.719999C93.2723 0.933332 93.379 1.264 93.379 1.712C93.379 2.26667 93.3683 2.91733 93.347 3.664C93.3257 4.38933 93.3043 4.944 93.283 5.328C93.219 6.416 93.187 7.504 93.187 8.592C93.187 9.65867 93.1657 10.5013 93.123 11.12C93.763 10.1813 94.4883 9.488 95.299 9.04C96.131 8.57067 97.1017 8.336 98.211 8.336C99.0217 8.336 99.7683 8.69867 100.451 9.424C101.155 10.128 101.582 10.9387 101.731 11.856C101.774 12.3253 101.795 13.0187 101.795 13.936L101.763 16.272C101.763 16.6347 101.784 17.2 101.827 17.968C101.848 18.3307 101.966 18.7147 102.179 19.12C102.414 19.5253 102.68 19.824 102.979 20.016C103.256 20.1867 103.438 20.3573 103.523 20.528C103.608 20.6987 103.651 20.8907 103.651 21.104C103.651 21.3173 103.555 21.5413 103.363 21.776C103.171 21.9893 102.926 22.096 102.627 22.096ZM120.507 19.536C120.613 19.5787 120.784 19.632 121.019 19.696C121.253 19.76 121.424 19.824 121.531 19.888C121.637 19.952 121.691 20.048 121.691 20.176C121.712 20.688 121.52 21.1147 121.115 21.456C120.731 21.776 120.272 21.936 119.739 21.936C118.907 21.936 118.256 21.712 117.787 21.264C117.317 20.816 116.976 20.1333 116.763 19.216C116.677 18.8533 116.635 18.352 116.635 17.712C116.635 17.3493 116.656 16.7627 116.699 15.952C116.741 15.0987 116.763 14.416 116.763 13.904C116.763 12.9867 116.667 12.2933 116.475 11.824C116.283 11.3333 115.824 11.088 115.099 11.088C114.352 11.088 113.68 11.3867 113.083 11.984C112.507 12.5813 112.016 13.4773 111.611 14.672C111.056 16.336 110.747 18.544 110.683 21.296C110.683 21.4453 110.523 21.6267 110.203 21.84C109.904 22.032 109.541 22.128 109.115 22.128C108.325 22.128 107.835 21.712 107.643 20.88L107.611 20.336C107.611 20.144 107.632 19.92 107.675 19.664C107.931 18.1707 108.059 16.8693 108.059 15.76C108.059 15.2693 108.048 14.8853 108.027 14.608L107.995 13.104C107.995 12.592 107.867 12.1013 107.611 11.632C107.355 11.1413 107.056 10.896 106.715 10.896C106.608 10.896 106.459 10.9387 106.267 11.024C106.075 11.088 105.915 11.12 105.787 11.12C105.573 11.12 105.339 11.0133 105.083 10.8C104.848 10.5867 104.731 10.3627 104.731 10.128C104.731 9.68 104.88 9.31733 105.179 9.04C105.499 8.784 105.808 8.58133 106.107 8.432C106.427 8.28267 106.789 8.208 107.195 8.208C107.536 8.208 107.813 8.24 108.027 8.304C108.24 8.368 108.528 8.50667 108.891 8.72C109.104 8.82667 109.349 9.12533 109.627 9.616C109.904 10.1067 110.117 10.8 110.267 11.696C110.693 10.9067 111.408 10.0747 112.411 9.2C113.157 8.51733 114.235 8.176 115.643 8.176C116.923 8.176 117.936 8.64533 118.683 9.584C119.429 10.5013 119.803 11.7707 119.803 13.392C119.803 13.712 119.781 14.2347 119.739 14.96C119.675 15.536 119.643 16.144 119.643 16.784C119.643 18.2773 119.931 19.1947 120.507 19.536ZM125.447 8.112C126.855 8.112 127.559 9.04 127.559 10.896C127.559 11.1307 127.538 11.6533 127.495 12.464C127.452 13.4027 127.431 14.1387 127.431 14.672C127.431 16.1653 127.634 17.3707 128.039 18.288C128.188 18.5867 128.455 18.8213 128.839 18.992C129.244 19.1627 129.586 19.248 129.863 19.248C130.29 19.248 130.642 19.1947 130.919 19.088C131.196 18.9813 131.452 18.8213 131.687 18.608C131.943 18.3947 132.188 18.16 132.423 17.904C132.828 17.456 133.084 16.944 133.191 16.368C133.319 15.7707 133.394 14.9813 133.415 14C133.415 13.3813 133.447 12.784 133.511 12.208C133.639 11.2693 133.703 10.3947 133.703 9.584C133.703 9.136 133.82 8.76267 134.055 8.464C134.311 8.144 134.674 7.984 135.143 7.984C135.378 7.984 135.655 8.06933 135.975 8.24C136.316 8.38933 136.54 8.56 136.647 8.752C136.796 9.008 136.871 9.36 136.871 9.808C136.871 10.0853 136.839 10.3413 136.775 10.576C136.668 10.896 136.615 11.3013 136.615 11.792C136.615 12.048 136.636 12.4747 136.679 13.072C136.743 13.52 136.775 13.9787 136.775 14.448C136.775 15.8773 136.882 16.9333 137.095 17.616C137.33 18.3413 137.65 18.9813 138.055 19.536C138.482 19.984 138.77 20.3147 138.919 20.528C139.068 20.72 139.143 20.8907 139.143 21.04C139.143 21.296 139.015 21.5413 138.759 21.776C138.503 22.0107 138.236 22.128 137.959 22.128C137.17 22.128 136.476 21.8613 135.879 21.328C135.303 20.7733 134.876 20.0693 134.599 19.216C134.364 19.4933 134.055 19.8347 133.671 20.24C133.287 20.6453 132.924 20.976 132.583 21.232C131.751 21.8293 130.684 22.128 129.383 22.128C128.85 22.128 128.263 21.968 127.623 21.648C127.004 21.328 126.439 20.912 125.927 20.4C125.415 19.8667 125.063 19.3013 124.871 18.704C124.85 18.6613 124.786 18.4907 124.679 18.192C124.594 17.8933 124.551 17.4453 124.551 16.848L124.519 11.728C124.519 11.4293 124.444 10.96 124.295 10.32C124.167 9.89333 124.103 9.57333 124.103 9.36C124.103 8.99733 124.22 8.69867 124.455 8.464C124.711 8.22933 125.042 8.112 125.447 8.112Z" fill="#141414"/>
</svg>
